<?xml version="1.0" encoding="UTF-8" standalone="no"?>
<!DOCTYPE svg PUBLIC "-//W3C//DTD SVG 1.1//EN"
 "http://www.w3.org/Graphics/SVG/1.1/DTD/svg11.dtd">
<!-- Generated by graphviz version 2.40.1 (20161225.0304)
 -->
<!-- Title: dependency&#45;cruiser output Pages: 1 -->
<svg width="438pt" height="204pt"
 viewBox="0.00 0.00 438.00 204.00" xmlns="http://www.w3.org/2000/svg" xmlns:xlink="http://www.w3.org/1999/xlink">
<g id="graph0" class="graph" transform="scale(1 1) rotate(0) translate(4 200)">
<title>dependency&#45;cruiser output</title>
<polygon fill="#ffffff" stroke="transparent" points="-4,4 -4,-200 434,-200 434,4 -4,4"/>
<g id="clust1" class="cluster">
<title>cluster_assets</title>
<path fill="#ffffff" stroke="#000000" stroke-width="2" d="M364,-16C364,-16 410,-16 410,-16 416,-16 422,-22 422,-28 422,-28 422,-56 422,-56 422,-62 416,-68 410,-68 410,-68 364,-68 364,-68 358,-68 352,-62 352,-56 352,-56 352,-28 352,-28 352,-22 358,-16 364,-16"/>
<text text-anchor="middle" x="387" y="-56.8" font-family="Helvetica,sans-Serif" font-weight="bold" font-size="9.00" fill="#000000">assets</text>
</g>
<g id="clust2" class="cluster">
<title>cluster_src</title>
<path fill="#ffffff" stroke="#000000" stroke-width="2" d="M20,-8C20,-8 332,-8 332,-8 338,-8 344,-14 344,-20 344,-20 344,-176 344,-176 344,-182 338,-188 332,-188 332,-188 20,-188 20,-188 14,-188 8,-182 8,-176 8,-176 8,-20 8,-20 8,-14 14,-8 20,-8"/>
<text text-anchor="middle" x="176" y="-176.8" font-family="Helvetica,sans-Serif" font-weight="bold" font-size="9.00" fill="#000000">src</text>
</g>
<g id="clust3" class="cluster">
<title>cluster_src/__tests__</title>
<path fill="#ffffff" stroke="#000000" stroke-width="2" d="M110,-110C110,-110 174,-110 174,-110 180,-110 186,-116 186,-122 186,-122 186,-150 186,-150 186,-156 180,-162 174,-162 174,-162 110,-162 110,-162 104,-162 98,-156 98,-150 98,-150 98,-122 98,-122 98,-116 104,-110 110,-110"/>
<text text-anchor="middle" x="142" y="-150.8" font-family="Helvetica,sans-Serif" font-weight="bold" font-size="9.00" fill="#000000">__tests__</text>
</g>
<g id="clust4" class="cluster">
<title>cluster_src/main</title>
<path fill="#ffffff" stroke="#000000" stroke-width="2" d="M206,-76C206,-76 324,-76 324,-76 330,-76 336,-82 336,-88 336,-88 336,-150 336,-150 336,-156 330,-162 324,-162 324,-162 206,-162 206,-162 200,-162 194,-156 194,-150 194,-150 194,-88 194,-88 194,-82 200,-76 206,-76"/>
<text text-anchor="middle" x="265" y="-150.8" font-family="Helvetica,sans-Serif" font-weight="bold" font-size="9.00" fill="#000000">main</text>
</g>
<g id="clust5" class="cluster">
<title>cluster_src/renderer</title>
<path fill="#ffffff" stroke="#000000" stroke-width="2" d="M28,-16C28,-16 78,-16 78,-16 84,-16 90,-22 90,-28 90,-28 90,-150 90,-150 90,-156 84,-162 78,-162 78,-162 28,-162 28,-162 22,-162 16,-156 16,-150 16,-150 16,-28 16,-28 16,-22 22,-16 28,-16"/>
<text text-anchor="middle" x="53" y="-150.8" font-family="Helvetica,sans-Serif" font-weight="bold" font-size="9.00" fill="#000000">renderer</text>
</g>
<!-- assets/icon.svg -->
<g id="node1" class="node">
<title>assets/icon.svg</title>
<g id="a_node1"><a xlink:href="assets/icon.svg" xlink:title="icon.svg">
<path fill="#ffffcc" stroke="#000000" d="M408,-42C408,-42 366,-42 366,-42 363,-42 360,-39 360,-36 360,-36 360,-30 360,-30 360,-27 363,-24 366,-24 366,-24 408,-24 408,-24 411,-24 414,-27 414,-30 414,-30 414,-36 414,-36 414,-39 411,-42 408,-42"/>
<text text-anchor="middle" x="387" y="-30.8" font-family="Helvetica,sans-Serif" font-size="9.00" fill="#000000">icon.svg</text>
</a>
</g>
</g>
<!-- src/__tests__/App.test.tsx -->
<g id="node2" class="node">
<title>src/__tests__/App.test.tsx</title>
<g id="a_node2"><a xlink:href="src/__tests__/App.test.tsx" xlink:title="App.test.tsx">
<path fill="#bbfeff" stroke="#000000" d="M171.5,-136C171.5,-136 112.5,-136 112.5,-136 109.5,-136 106.5,-133 106.5,-130 106.5,-130 106.5,-124 106.5,-124 106.5,-121 109.5,-118 112.5,-118 112.5,-118 171.5,-118 171.5,-118 174.5,-118 177.5,-121 177.5,-124 177.5,-124 177.5,-130 177.5,-130 177.5,-133 174.5,-136 171.5,-136"/>
<text text-anchor="middle" x="142" y="-124.8" font-family="Helvetica,sans-Serif" font-size="9.00" fill="#000000">App.test.tsx</text>
</a>
</g>
</g>
<!-- src/renderer/App.tsx -->
<g id="node3" class="node">
<title>src/renderer/App.tsx</title>
<g id="a_node3"><a xlink:href="src/renderer/App.tsx" xlink:title="App.tsx">
<path fill="#bbfeff" stroke="#000000" d="M76,-102C76,-102 34,-102 34,-102 31,-102 28,-99 28,-96 28,-96 28,-90 28,-90 28,-87 31,-84 34,-84 34,-84 76,-84 76,-84 79,-84 82,-87 82,-90 82,-90 82,-96 82,-96 82,-99 79,-102 76,-102"/>
<text text-anchor="middle" x="55" y="-90.8" font-family="Helvetica,sans-Serif" font-size="9.00" fill="#000000">App.tsx</text>
</a>
</g>
</g>
<!-- src/__tests__/App.test.tsx&#45;&gt;src/renderer/App.tsx -->
<g id="edge1" class="edge">
<title>src/__tests__/App.test.tsx&#45;&gt;src/renderer/App.tsx</title>
<path fill="none" stroke="#000000" stroke-width="2" stroke-opacity="0.200000" d="M118.6856,-117.8886C107.9702,-113.701 95.1551,-108.6928 83.839,-104.2704"/>
<polygon fill="#000000" fill-opacity="0.200000" stroke="#000000" stroke-width="2" stroke-opacity="0.200000" points="84.4299,-102.2467 78.0771,-102.0186 82.9011,-106.1586 84.4299,-102.2467"/>
</g>
<!-- src/renderer/App.tsx&#45;&gt;assets/icon.svg -->
<g id="edge4" class="edge">
<title>src/renderer/App.tsx&#45;&gt;assets/icon.svg</title>
<path fill="none" stroke="#000000" stroke-width="2" stroke-opacity="0.200000" d="M82.169,-88.0899C142.6295,-77.1633 288.1226,-50.8694 353.8183,-38.9967"/>
<polygon fill="#000000" fill-opacity="0.200000" stroke="#000000" stroke-width="2" stroke-opacity="0.200000" points="354.3904,-41.0274 359.9213,-37.8937 353.6434,-36.8944 354.3904,-41.0274"/>
</g>
<!-- src/renderer/App.css -->
<g id="node8" class="node">
<title>src/renderer/App.css</title>
<g id="a_node8"><a xlink:href="src/renderer/App.css" xlink:title="App.css">
<path fill="#ffffcc" stroke="#000000" d="M76,-42C76,-42 34,-42 34,-42 31,-42 28,-39 28,-36 28,-36 28,-30 28,-30 28,-27 31,-24 34,-24 34,-24 76,-24 76,-24 79,-24 82,-27 82,-30 82,-30 82,-36 82,-36 82,-39 79,-42 76,-42"/>
<text text-anchor="middle" x="55" y="-30.8" font-family="Helvetica,sans-Serif" font-size="9.00" fill="#000000">App.css</text>
</a>
</g>
</g>
<!-- src/renderer/App.tsx&#45;&gt;src/renderer/App.css -->
<g id="edge5" class="edge">
<title>src/renderer/App.tsx&#45;&gt;src/renderer/App.css</title>
<path fill="none" stroke="#000000" stroke-width="2" stroke-opacity="0.200000" d="M55,-83.8873C55,-74.4602 55,-59.5703 55,-48.3276"/>
<polygon fill="#000000" fill-opacity="0.200000" stroke="#000000" stroke-width="2" stroke-opacity="0.200000" points="57.1001,-48.1984 55,-42.1985 52.9001,-48.1985 57.1001,-48.1984"/>
</g>
<!-- src/main/main.ts -->
<g id="node4" class="node">
<title>src/main/main.ts</title>
<g id="a_node4"><a xlink:href="src/main/main.ts" xlink:title="main.ts">
<path fill="#ddfeff" stroke="#000000" d="M322,-136C322,-136 280,-136 280,-136 277,-136 274,-133 274,-130 274,-130 274,-124 274,-124 274,-121 277,-118 280,-118 280,-118 322,-118 322,-118 325,-118 328,-121 328,-124 328,-124 328,-130 328,-130 328,-133 325,-136 322,-136"/>
<text text-anchor="middle" x="301" y="-124.8" font-family="Helvetica,sans-Serif" font-size="9.00" fill="#000000">main.ts</text>
</a>
</g>
</g>
<!-- src/main/menu.ts -->
<g id="node5" class="node">
<title>src/main/menu.ts</title>
<g id="a_node5"><a xlink:href="src/main/menu.ts" xlink:title="menu.ts">
<path fill="#ddfeff" stroke="#000000" d="M256,-102C256,-102 214,-102 214,-102 211,-102 208,-99 208,-96 208,-96 208,-90 208,-90 208,-87 211,-84 214,-84 214,-84 256,-84 256,-84 259,-84 262,-87 262,-90 262,-90 262,-96 262,-96 262,-99 259,-102 256,-102"/>
<text text-anchor="middle" x="235" y="-90.8" font-family="Helvetica,sans-Serif" font-size="9.00" fill="#000000">menu.ts</text>
</a>
</g>
</g>
<!-- src/main/main.ts&#45;&gt;src/main/menu.ts -->
<g id="edge2" class="edge">
<title>src/main/main.ts&#45;&gt;src/main/menu.ts</title>
<path fill="none" stroke="#000000" stroke-width="2" stroke-opacity="0.200000" d="M283.3132,-117.8886C275.6192,-113.9251 266.4982,-109.2264 258.2651,-104.9851"/>
<polygon fill="#000000" fill-opacity="0.200000" stroke="#000000" stroke-width="2" stroke-opacity="0.200000" points="259.0312,-103.0175 252.7356,-102.1365 257.1077,-106.7512 259.0312,-103.0175"/>
</g>
<!-- src/main/util.ts -->
<g id="node6" class="node">
<title>src/main/util.ts</title>
<g id="a_node6"><a xlink:href="src/main/util.ts" xlink:title="util.ts">
<path fill="#ddfeff" stroke="#000000" d="M322,-102C322,-102 280,-102 280,-102 277,-102 274,-99 274,-96 274,-96 274,-90 274,-90 274,-87 277,-84 280,-84 280,-84 322,-84 322,-84 325,-84 328,-87 328,-90 328,-90 328,-96 328,-96 328,-99 325,-102 322,-102"/>
<text text-anchor="middle" x="301" y="-90.8" font-family="Helvetica,sans-Serif" font-size="9.00" fill="#000000">util.ts</text>
</a>
</g>
</g>
<!-- src/main/main.ts&#45;&gt;src/main/util.ts -->
<g id="edge3" class="edge">
<title>src/main/main.ts&#45;&gt;src/main/util.ts</title>
<path fill="none" stroke="#000000" stroke-width="2" stroke-opacity="0.200000" d="M301,-117.7094C301,-114.738 301,-111.368 301,-108.0935"/>
<polygon fill="#000000" fill-opacity="0.200000" stroke="#000000" stroke-width="2" stroke-opacity="0.200000" points="303.1001,-108.0444 301,-102.0444 298.9001,-108.0444 303.1001,-108.0444"/>
</g>
<!-- src/main/preload.js -->
<g id="node7" class="node">
<title>src/main/preload.js</title>
<g id="a_node7"><a xlink:href="src/main/preload.js" xlink:title="preload.js">
<path fill="#ccffcc" stroke="#000000" d="M256,-136C256,-136 208,-136 208,-136 205,-136 202,-133 202,-130 202,-130 202,-124 202,-124 202,-121 205,-118 208,-118 208,-118 256,-118 256,-118 259,-118 262,-121 262,-124 262,-124 262,-130 262,-130 262,-133 259,-136 256,-136"/>
<text text-anchor="middle" x="232" y="-124.8" font-family="Helvetica,sans-Serif" font-size="9.00" fill="#000000">preload.js</text>
</a>
</g>
</g>
<!-- src/renderer/index.tsx -->
<g id="node9" class="node">
<title>src/renderer/index.tsx</title>
<g id="a_node9"><a xlink:href="src/renderer/index.tsx" xlink:title="index.tsx">
<path fill="#bbfeff" stroke="#000000" d="M76,-136C76,-136 30,-136 30,-136 27,-136 24,-133 24,-130 24,-130 24,-124 24,-124 24,-121 27,-118 30,-118 30,-118 76,-118 76,-118 79,-118 82,-121 82,-124 82,-124 82,-130 82,-130 82,-133 79,-136 76,-136"/>
<text text-anchor="middle" x="53" y="-124.8" font-family="Helvetica,sans-Serif" font-size="9.00" fill="#000000">index.tsx</text>
</a>
</g>
</g>
<!-- src/renderer/index.tsx&#45;&gt;src/renderer/App.tsx -->
<g id="edge6" class="edge">
<title>src/renderer/index.tsx&#45;&gt;src/renderer/App.tsx</title>
<path fill="none" stroke="#000000" stroke-width="2" stroke-opacity="0.200000" d="M53.5465,-117.7094C53.7213,-114.738 53.9195,-111.368 54.1121,-108.0935"/>
<polygon fill="#000000" fill-opacity="0.200000" stroke="#000000" stroke-width="2" stroke-opacity="0.200000" points="56.2119,-108.1574 54.468,-102.0444 52.0192,-107.9107 56.2119,-108.1574"/>
</g>
</g>
</svg>
